<svg width="85" height="82" viewBox="0 0 85 82" fill="none" xmlns="http://www.w3.org/2000/svg">
<path d="M1.38818 61V21C1.38818 9.95431 10.3425 1 21.3882 1H63.2313C74.2769 1 83.2313 9.95431 83.2313 21V61C83.2313 72.0457 74.2769 81 63.2312 81H21.3882C10.3425 81 1.38818 72.0457 1.38818 61Z" stroke="#282828" stroke-width="2"/>
<path d="M19.8882 57V23C19.8882 22.4477 20.3359 22 20.8882 22H33.3882C40.0156 22 45.3882 27.3726 45.3882 34C45.3882 41.1797 39.5679 47 32.3882 47H28.3882C27.8359 47 27.3882 47.4477 27.3882 48V57C27.3882 57.5523 26.9405 58 26.3882 58H20.8882C20.3359 58 19.8882 57.5523 19.8882 57Z" stroke="#282828" stroke-width="2"/>
<path d="M58.0923 30H63.2206C64.9661 30 66.6788 30.4744 68.1756 31.3725C68.3075 31.4516 68.3882 31.5941 68.3882 31.7479V36.9612C68.3882 37.6849 67.6433 38.169 66.982 37.875L65.2055 37.0855C64.3308 36.6967 63.4104 36.4204 62.4662 36.263L61.3097 36.0702C61.0292 36.0235 60.7453 36 60.4609 36H59.9171C58.3315 36 57.1255 37.4237 57.3861 38.9877C57.3875 38.9959 57.3882 39.0042 57.3882 39.0125C57.3882 40.1847 58.1652 41.222 59.2922 41.544L60.8882 42L61.0857 42.0296C66.4735 42.8378 70.1543 47.9034 69.2586 53.2773C69.0223 54.6954 68.2095 55.9525 67.0133 56.7499L65.2953 57.8953C63.7324 58.9372 61.8749 59.4467 59.9992 59.3479L54.9291 59.0811C53.9079 59.0274 52.9009 58.8173 51.9434 58.4582L50.0371 57.7433C49.6468 57.597 49.3882 57.2238 49.3882 56.807V52.118C49.3882 51.3747 50.1705 50.8912 50.8354 51.2236L53.3882 52.5L54.2391 52.8191C56.2941 53.5897 58.5288 53.7465 60.6713 53.2704C61.4262 53.1027 62.0378 52.5511 62.2824 51.8174L62.452 51.3087C62.7193 50.5066 62.5106 49.6224 61.9128 49.0246C61.5695 48.6813 61.1394 48.4378 60.6685 48.3201L55.9812 47.1483C52.1064 46.1796 49.3882 42.6981 49.3882 38.7041C49.3882 33.8969 53.2851 30 58.0923 30Z" stroke="#282828" stroke-width="2"/>
</svg>
