<svg width="85" height="82" viewBox="0 0 85 82" fill="none" xmlns="http://www.w3.org/2000/svg">
<path d="M1.92578 61V21C1.92578 9.9543 10.8801 1 21.9258 1H63.7689C74.8145 1 83.7689 9.9543 83.7689 21V61C83.7689 72.0457 74.8145 81 63.7688 81H21.9258C10.8801 81 1.92578 72.0457 1.92578 61Z" stroke="black" stroke-width="2"/>
<path d="M42.8777 49.6779V32.4783H34.1979C29.4484 32.4783 25.5981 36.3285 25.5981 41.0781C25.5981 45.8276 29.4484 49.6779 34.1979 49.6779H42.8777Z" stroke="black" stroke-width="2"/>
<path d="M42.9223 49.6428V58.2948C42.9223 63.0788 39.017 66.9569 34.233 66.9569C29.4791 66.9569 25.5981 63.1031 25.5981 58.3491C25.5981 53.6328 29.3934 49.7947 34.1094 49.7418L42.9223 49.6428Z" stroke="black" stroke-width="2"/>
<path d="M42.8999 15.042H34.0236C29.1964 15.042 25.2832 18.9552 25.2832 23.7824V23.7824C25.2832 28.6096 29.1964 32.5229 34.0236 32.5229H42.8999M42.8999 15.042V32.5229M42.8999 15.042H51.7376C56.5648 15.042 60.478 18.9552 60.478 23.7824V23.7824C60.478 28.6096 56.5648 32.5229 51.7376 32.5229H42.8999" stroke="black" stroke-width="2"/>
<path d="M51.6865 49.6074H51.4424C46.7245 49.6074 42.8999 45.7828 42.8999 41.0649C42.8999 36.3471 46.7245 32.5225 51.4424 32.5225H51.6864C56.4043 32.5225 60.2289 36.3471 60.2289 41.0649C60.2289 45.7828 56.4043 49.6074 51.6865 49.6074Z" stroke="black" stroke-width="2"/>
</svg>
