<svg width="85" height="82" viewBox="0 0 85 82" fill="none" xmlns="http://www.w3.org/2000/svg">
<path d="M1.70215 61V21C1.70215 9.9543 10.6565 1 21.7022 1H63.5452C74.5909 1 83.5452 9.9543 83.5452 21V61C83.5452 72.0457 74.5909 81 63.5452 81H21.7021C10.6565 81 1.70215 72.0457 1.70215 61Z" stroke="black" stroke-width="2"/>
<path d="M29.7541 24.6571V23.5152C29.7541 22.4106 30.6495 21.5152 31.7541 21.5152H38.1651C39.0125 21.5152 39.7679 22.0491 40.0505 22.848L46.8576 42.0841L51.4841 54.9457C51.9529 56.2489 50.9871 57.6227 49.6021 57.6227H45.7774C44.9471 57.6227 44.2032 57.1096 43.908 56.3336L41.8702 50.9748C41.5751 50.1987 40.8311 49.6857 40.0008 49.6857H30.4066C29.5489 49.6857 28.7866 50.2327 28.512 51.0453L26.7482 56.2631C26.4735 57.0757 25.7113 57.6227 24.8535 57.6227H21.6825C20.3182 57.6227 19.3544 56.2868 19.7845 54.9921L29.6521 25.2876C29.7197 25.0842 29.7541 24.8714 29.7541 24.6571Z" stroke="black" stroke-width="2"/>
<path d="M60.1287 27.3845H59.488C57.2272 27.3845 55.3945 25.5518 55.3945 23.291C55.3945 21.0302 57.2272 19.1975 59.488 19.1975H60.1287C62.3895 19.1975 64.2222 21.0302 64.2222 23.291C64.2222 25.5518 62.3895 27.3845 60.1287 27.3845Z" stroke="black" stroke-width="2"/>
<path d="M55.4208 55.9708L55.7247 32.6333C55.739 31.539 56.6301 30.6593 57.7245 30.6593H61.795C62.8996 30.6593 63.795 31.5548 63.795 32.6593V55.9968C63.795 57.1014 62.8996 57.9968 61.795 57.9968H57.4207C56.3059 57.9968 55.4063 57.0854 55.4208 55.9708Z" stroke="black" stroke-width="2"/>
</svg>
