<svg width="85" height="82" viewBox="0 0 85 82" fill="none" xmlns="http://www.w3.org/2000/svg">
<path d="M1.54492 61V21C1.54492 9.95431 10.4992 1 21.5449 1H63.388C74.4337 1 83.388 9.95431 83.388 21V61C83.388 72.0457 74.4337 81 63.388 81H21.5449C10.4992 81 1.54492 72.0457 1.54492 61Z" stroke="#282828" stroke-width="2"/>
<path d="M23.0449 58V23.5C23.0449 22.9477 23.4926 22.5 24.0449 22.5H30.0449C30.5972 22.5 31.0449 22.9477 31.0449 23.5V58C31.0449 58.5523 30.5972 59 30.0449 59H24.0449C23.4926 59 23.0449 58.5523 23.0449 58Z" stroke="#282828" stroke-width="2"/>
<path d="M54.0449 20V30.5H50.5449C42.8129 30.5 36.5449 36.768 36.5449 44.5V46C36.5449 53.1797 42.3652 59 49.5449 59H53.7957C56.5901 59 59.3461 58.3494 61.8455 57.0997L62.0449 57V44.5V40V20C62.0449 19.4477 61.5972 19 61.0449 19H55.0449C54.4926 19 54.0449 19.4477 54.0449 20Z" stroke="#282828" stroke-width="2"/>
</svg>
