<svg width="605" height="648" viewBox="0 0 605 648" fill="none" xmlns="http://www.w3.org/2000/svg">
<path d="M93 646L64.9431 562.116C51.342 521.451 51.17 477.492 64.4524 436.722L76.5909 399.464C78.8594 392.501 81.7228 385.746 85.1492 379.274L93.5963 363.318C107.651 336.771 107.975 305.061 94.4667 278.232V278.232C85.0962 259.622 82.2671 238.397 86.4357 217.981L95.8287 171.98C98.2675 160.036 102.121 148.425 107.308 137.393L114.498 122.1C142.211 63.1544 208.428 32.8268 271.163 50.3473V50.3473C307.945 60.6197 338.563 86.1581 355.27 120.499L384.272 180.114C389.357 190.568 392 202.041 392 213.666V213.666C392 225.399 394.692 236.975 399.868 247.504L417.032 282.417C429.099 306.963 451.068 325.194 477.42 332.527V332.527C516.209 343.322 544.135 377.185 547.346 417.321L555.483 519.04C558.436 555.954 551.083 592.963 534.241 625.944L524 646" stroke="black"/>
<path d="M74.0082 646L49.7755 554.599C39.4964 515.828 41.1123 474.863 54.4132 437.022L74.0082 381.275L83.846 354.317C93.843 326.923 91.5959 296.554 77.6757 270.929V270.929C65.9927 249.423 62.4597 224.424 67.7253 200.522L76.343 161.404C79.5856 146.685 84.9218 132.508 92.1889 119.304V119.304C126.934 56.1739 200.923 24.8591 270.684 42.9168V42.9168C312.324 53.6954 348.317 80.9636 369.651 118.313L396.937 166.083C403.072 176.825 406.299 188.981 406.299 201.351V201.351C406.299 212.967 409.145 224.407 414.588 234.67L436.956 276.84C448.641 298.869 468.562 315.384 492.375 322.783V322.783C529.034 334.173 555.154 366.617 558.455 404.863L569.916 537.647C571.956 561.281 569.775 585.09 563.475 607.96L552.996 646" stroke="black"/>
<path d="M59.7196 647L28.685 568.176C10.3704 521.659 10.141 469.97 28.042 423.292L39.9006 392.37C42.5821 385.378 45.9259 378.659 49.8865 372.303L59.2155 357.334C76.6858 329.3 77.0805 293.868 60.2389 265.452V265.452C49.7015 247.673 45.7224 226.765 48.9924 206.358L53.7267 176.813C57.6742 152.177 66.9585 128.702 80.9296 108.031L84.0095 103.474C125.96 41.4045 201.738 11.4904 274.775 28.1674V28.1674C330.726 40.9431 377.337 79.4304 400.468 131.954L416.349 168.015C420.626 177.727 422.835 188.224 422.835 198.836V198.836C422.835 212.286 426.382 225.498 433.119 237.139L455.583 275.956C468.852 298.885 490.514 315.76 515.993 323.016V323.016C556.479 334.546 585.739 369.738 589.686 411.648L601.337 535.368C603.756 561.058 601.181 586.973 593.754 611.685L583.14 647" stroke="black"/>
</svg>
