<svg width="586" height="636" viewBox="0 0 586 636" fill="none" xmlns="http://www.w3.org/2000/svg">
<path d="M94.5 634L97.3418 620.643C105.281 583.328 102.382 544.519 88.9865 508.797L81.2995 488.299C77.1112 477.13 74.096 465.556 72.3027 453.763L65.0887 406.326C60.9711 379.25 70.6247 351.903 90.8277 333.412V333.412C107.822 317.858 117.5 295.88 117.5 272.843V250.5V164.847C117.5 150.399 120.089 136.069 125.144 122.534V122.534C147.118 63.7001 210.472 31.4786 270.961 48.3719L277.432 50.1793C311.314 59.6416 339.821 82.6056 356.28 113.695L384.879 167.715C390.54 178.409 393.5 190.326 393.5 202.426V202.426C393.5 213.662 396.052 224.751 400.964 234.856L422.463 279.091C431.76 298.218 448.373 312.791 468.548 319.516V319.516C502.21 330.737 524.266 363.019 522.482 398.457L519.496 457.788C518.507 477.422 521.21 497.067 527.463 515.704L527.965 517.199C538.106 547.423 539.305 579.931 531.418 610.819L525.5 634" stroke="black"/>
<path d="M75.5082 634L45.8654 522.193C39.3066 497.454 44.2276 471.078 59.2656 450.368V450.368C69.8226 435.83 75.5082 418.324 75.5082 400.356V322.906C75.5082 307.025 73.6168 291.201 69.8738 275.768L66.2039 260.635C59.1577 231.582 58.7145 201.318 64.907 172.07L69.5907 149.949C73.5044 131.464 80.6831 113.826 90.7899 97.8621V97.8621C127.711 39.5442 198.056 11.7285 264.876 29.0252L269.942 30.3364C313.319 41.5646 350.319 69.8422 372.542 108.749L400.702 158.05C405.353 166.192 407.799 175.406 407.799 184.783V184.783C407.799 199.038 413.446 212.713 423.505 222.814L468.5 268L478.503 276.11C520.677 310.303 547.137 360.174 551.806 414.266L561.42 525.647C563.46 549.281 561.279 573.09 554.979 595.96L544.5 634" stroke="black"/>
<path d="M61.2196 635L25.2962 561.064C8.96044 527.442 5.04263 489.126 14.2358 452.894L19.1412 433.561C23.2953 417.189 32.0019 402.329 44.2529 390.701V390.701C68.9036 367.303 78.1575 331.953 68.133 299.479L53.0704 250.683C48.0068 234.279 45.432 217.209 45.432 200.041V168.868C45.432 126.631 61.9091 86.0609 91.359 55.7852V55.7852C125.662 20.5201 174.119 2.73223 223.091 7.42774L239.944 9.04361C307.777 15.5475 367.464 56.5677 397.846 117.564L418.03 158.086C422.219 166.496 427.366 174.394 433.369 181.622V181.622C451.549 203.516 461.5 231.077 461.5 259.535V261.973C461.5 296.825 475.634 330.187 500.67 354.433L505.772 359.374C537.804 390.394 553.84 434.39 549.283 478.746L547.302 498.022C543.521 534.83 550.84 571.928 568.318 604.542L584.64 635" stroke="black"/>
</svg>
