<svg width="589" height="636" viewBox="0 0 589 636" fill="none" xmlns="http://www.w3.org/2000/svg">
<path d="M77 634L54.6184 542.919C45.7171 506.696 47.1232 468.705 58.6778 433.239L77 377L85.9773 350.458C94.9489 323.934 92.9104 294.919 80.3181 269.91V269.91C69.7484 248.917 66.5572 224.976 71.2594 201.948L79.5472 161.359C82.1703 148.512 86.5202 136.08 92.4783 124.4L94.9924 119.471C124.956 60.734 192.164 31.2531 255.672 48.9896V48.9896C292.273 59.2115 323.069 84.0189 340.849 117.604L367.421 167.796C373.055 178.437 376 190.295 376 202.335V202.335C376 213.628 378.591 224.77 383.573 234.904L404.15 276.759C414.293 297.392 432.265 313.111 454.063 320.419V320.419C486.775 331.385 509.785 360.815 512.536 395.206L523.346 530.323C525.103 552.29 523.218 574.396 517.766 595.749L508 634" stroke="black"/>
<path d="M58.0082 634L33.7755 542.599C23.4964 503.828 25.1123 462.863 38.4132 425.022L58.0082 369.275L67.846 342.317C77.843 314.923 75.5959 284.554 61.6757 258.929V258.929C49.9927 237.423 46.4597 212.424 51.7253 188.522L60.343 149.404C63.5856 134.685 68.9218 120.508 76.1889 107.304V107.304C110.934 44.1739 184.923 12.8591 254.684 30.9168V30.9168C296.324 41.6954 332.317 68.9636 353.651 106.313L380.937 154.083C387.072 164.825 390.299 176.981 390.299 189.351V189.351C390.299 200.967 393.145 212.407 398.588 222.67L420.956 264.84C432.641 286.869 452.562 303.384 476.375 310.783V310.783C513.034 322.173 539.154 354.617 542.455 392.863L553.916 525.647C555.956 549.281 553.775 573.09 547.475 595.96L536.996 634" stroke="black"/>
<path d="M43.7196 635L18.657 548.357C6.55099 506.506 8.44181 461.846 24.042 421.168L43.7196 369.858L54.2736 343.35C65.2324 315.826 62.8037 284.775 47.6987 259.289V259.289C35.0227 237.902 31.1821 212.416 36.9923 188.243L45.5839 152.498C49.5801 135.872 56.0923 119.954 64.8952 105.294V105.294C102.549 42.5889 176.458 11.4677 247.625 28.3522L257.536 30.7036C304.167 41.7669 344.545 70.7904 369.893 111.464L396.842 154.709C403.373 165.188 406.835 177.289 406.835 189.637V189.637C406.835 201.252 409.898 212.662 415.716 222.715L439.583 263.956C452.852 286.885 474.514 303.76 499.993 311.016V311.016C540.478 322.545 569.739 357.738 573.686 399.647L585.337 523.367C587.756 549.057 585.181 574.973 577.754 599.684L567.14 635" stroke="black"/>
</svg>
