<svg width="57" height="57" viewBox="0 0 57 57" fill="none" xmlns="http://www.w3.org/2000/svg">
<path d="M46 1H11C5.47715 1 1 5.47715 1 11V46C1 51.5229 5.47715 56 11 56H46C51.5229 56 56 51.5229 56 46V11C56 5.47715 51.5229 1 46 1Z" stroke="#282828"/>
<path d="M13.7036 18.038H13.4046C10.8458 18.038 8.77148 15.9637 8.77148 13.4049C8.77148 10.8461 10.8458 8.77173 13.4046 8.77173H13.7036C16.2624 8.77173 18.3367 10.8461 18.3367 13.4049C18.3367 15.9637 16.2624 18.038 13.7036 18.038Z" stroke="#282828"/>
<path d="M9.36931 48.5272V21.9239H17.7389V48.2283L9.36931 48.5272Z" stroke="#282828"/>
<path d="M22.8204 48.5272V21.9239H30.8911V25.2119L31.6732 24.1952C33.0647 22.3862 35.2176 21.3261 37.5 21.3261C43.59 21.3261 48.5269 26.263 48.5269 32.353V48.5272H39.8584V33.2826C39.8584 30.8063 37.851 28.7989 35.3747 28.7989C32.8985 28.7989 30.8911 30.8063 30.8911 33.2826V48.5272H22.8204Z" stroke="#282828"/>
</svg>
