<svg width="39" height="19" viewBox="0 0 39 19" fill="none" xmlns="http://www.w3.org/2000/svg">
<path d="M14.184 12.432C14.184 15.936 11.544 18.288 7.32 18.288C4.464 18.288 1.992 17.256 0.36 15.84L2.688 12.12C4.32 13.416 5.736 14.016 7.248 14.016C8.088 14.016 8.688 13.656 8.688 13.056C8.688 12.216 8.016 11.904 5.88 11.256C2.688 10.272 1.08 8.904 1.08 6.024C1.08 2.232 4.056 0.191999 8.304 0.191999C10.584 0.191999 12.816 1.032 13.992 1.968L11.688 5.784C10.488 4.92 9.384 4.464 8.088 4.464C6.984 4.464 6.576 4.944 6.576 5.448C6.576 6 6.984 6.336 9.288 7.008C12.456 7.92 14.184 9.144 14.184 12.432ZM38.7752 0.48L34.4072 18H28.5752L26.6552 8.448L24.7352 18H18.9032L14.5352 0.48H20.8472L22.2872 9.888L24.0392 0.48H29.7512L31.5032 9.888L32.9432 0.48H38.7752Z" fill="black"/>
</svg>
