<svg width="116" height="21" viewBox="0 0 116 21" fill="none" xmlns="http://www.w3.org/2000/svg">
<path d="M8.64 8.064C8.784 8.28 8.832 8.424 8.856 8.688C8.856 8.712 8.856 8.736 8.856 8.736C8.856 8.904 8.784 9 8.76 9.168C8.76 9.192 8.76 9.192 8.76 9.192C8.76 9.216 8.76 9.24 8.76 9.24C8.76 9.264 8.76 9.264 8.76 9.264C8.664 9.696 8.616 10.008 8.496 10.368C8.376 10.728 8.256 11.088 8.16 11.472C8.064 11.832 7.92 12.12 7.776 12.528C7.704 12.768 7.632 12.888 7.584 13.128C7.44 13.608 7.392 13.872 7.272 14.376C7.176 14.784 7.128 15 7.032 15.408C7.032 15.48 7.008 15.504 6.984 15.576C6.72 16.152 6.648 16.608 6.312 17.064C6.264 17.136 6.24 17.208 6.168 17.28C6.168 17.304 6.144 17.304 6.096 17.304C6.096 17.304 6.096 17.304 6.072 17.304C5.736 17.256 5.424 17.16 5.184 17.16C4.992 17.16 4.848 17.088 4.704 17.04C4.464 16.944 4.224 16.824 4.128 16.536C4.104 16.416 4.08 16.32 4.08 16.248C4.08 16.008 4.176 15.816 4.2 15.528C4.272 15.144 4.368 14.928 4.464 14.52C4.488 14.424 4.488 14.352 4.512 14.256C4.8 13.392 4.968 12.912 5.28 12.048C5.4 11.688 5.52 11.424 5.616 11.136C5.712 10.824 5.688 10.848 5.784 10.56C5.808 10.488 5.832 10.44 5.832 10.392C5.832 10.32 5.808 10.248 5.808 10.2C5.784 10.128 5.736 10.032 5.688 9.96C5.352 9.912 5.064 9.936 4.728 9.912C4.632 9.912 4.56 9.912 4.464 9.912C4.272 9.912 4.104 9.912 3.936 9.84C3.888 9.816 3.84 9.792 3.768 9.792C3.576 9.768 3.384 9.768 3.168 9.744C3.096 9.744 3.048 9.696 3 9.696C2.544 9.528 2.088 9.192 1.68 8.952C1.392 8.808 1.272 8.64 1.104 8.376C0.96 8.136 0.912 7.968 0.888 7.704C0.888 7.68 0.888 7.68 0.888 7.656C0.888 7.44 0.984 7.272 0.984 7.08C1.008 6.864 1.008 6.672 1.08 6.456C1.128 6.168 1.2 5.856 1.296 5.544C1.44 5.112 1.632 4.68 1.8 4.224C1.848 4.104 1.92 3.96 1.992 3.84C2.184 3.552 2.4 3.264 2.592 2.976C2.976 2.376 3.768 2.16 4.416 1.728C4.488 1.68 4.584 1.656 4.656 1.656C4.728 1.656 4.776 1.68 4.848 1.68C5.016 1.728 5.112 1.824 5.232 1.944C5.304 2.016 5.328 2.064 5.328 2.184C5.328 2.208 5.328 2.256 5.328 2.28C5.328 2.424 5.304 2.52 5.28 2.688C5.232 2.904 5.208 3.024 5.112 3.216C4.896 3.576 4.704 3.744 4.512 4.056C4.344 4.392 4.128 4.704 4.056 5.064C3.984 5.376 3.864 5.64 3.768 5.904C3.696 6.144 3.624 6.36 3.576 6.576C3.528 6.744 3.432 6.888 3.432 7.056C3.432 7.104 3.432 7.152 3.456 7.2C3.504 7.368 3.696 7.392 3.864 7.464C3.936 7.488 4.032 7.488 4.128 7.488C4.512 7.488 4.8 7.368 5.232 7.272C5.616 7.152 6.024 7.104 6.408 7.104C6.84 7.104 7.296 7.176 7.752 7.368C8.112 7.512 8.448 7.728 8.64 8.064ZM19.2199 7.416C19.2439 7.68 19.2439 7.776 19.2439 8.04C19.2439 8.088 19.2439 8.136 19.2439 8.184C19.2439 8.304 19.2439 8.424 19.2199 8.568C19.2199 8.616 19.1959 8.664 19.1959 8.712C19.1959 8.808 19.2199 8.904 19.2199 9C19.2199 9.024 19.2199 9.024 19.2199 9.048C19.1959 9.504 19.1959 9.768 19.1719 10.224C19.1239 10.992 19.0759 11.424 19.0279 12.192C19.0279 12.288 19.0039 12.336 19.0039 12.432C18.9319 12.816 18.9079 13.032 18.8359 13.416C18.7399 13.944 18.7159 14.28 18.5479 14.784C18.4039 15.168 18.3079 15.456 18.0439 15.72C17.8999 15.84 17.7799 15.984 17.6839 16.152C17.6359 16.224 17.5879 16.296 17.5159 16.344C17.3479 16.44 17.2279 16.584 17.1079 16.752C16.9879 16.92 16.8199 17.016 16.6039 17.16C16.2199 17.424 16.1959 17.496 15.7639 17.664C15.6679 17.712 15.4519 17.736 15.2119 17.736C15.1399 17.736 15.0679 17.736 15.0199 17.736C14.6839 17.712 14.4919 17.712 14.1559 17.592C13.6759 17.424 13.2439 17.4 12.9559 17.016C12.9079 16.968 12.5959 16.704 12.5959 16.656C12.5479 16.344 12.4519 16.104 12.3799 15.768C12.3079 15.456 12.2839 15.288 12.2119 14.976C12.1399 14.664 12.1399 14.472 12.0679 14.16C12.0199 13.896 11.9719 13.776 11.9239 13.512C11.8759 13.248 11.8999 13.104 11.8759 12.84C11.8279 11.928 11.7799 11.376 11.7799 10.512C11.7799 10.44 11.7799 10.368 11.7799 10.296C11.7799 9.48 11.8519 9.024 11.9239 8.232C11.9479 8.064 11.9719 7.992 11.9959 7.824C12.0199 7.704 12.0199 7.632 12.0439 7.512C12.1639 6.936 12.2359 6.624 12.3559 6.048C12.4279 5.76 12.4759 5.616 12.5479 5.328C12.6199 5.088 12.6439 4.92 12.7159 4.704C13.0279 3.744 13.5079 2.976 13.9399 2.376C14.0119 2.304 14.0839 2.208 14.1559 2.136C14.2279 2.04 14.2759 1.944 14.3479 1.872C15.1159 1.296 14.9719 1.248 15.4759 1.2C15.4999 1.2 15.5239 1.2 15.5479 1.2C15.9559 1.2 16.7719 1.464 16.9879 1.704C17.1079 1.848 17.2279 2.016 17.3959 2.112C17.5399 2.184 17.7079 2.208 17.8519 2.28C17.9959 2.376 18.1399 2.472 18.1879 2.64C18.2599 3 18.4519 3.312 18.5959 3.624C18.7159 3.888 18.8359 4.128 18.9319 4.392C18.9799 4.56 19.0279 4.704 19.0279 4.872C19.0759 5.304 19.1719 5.664 19.2199 6.192C19.2199 6.288 19.2199 6.408 19.2199 6.48C19.2199 6.72 19.2199 6.912 19.2199 7.152C19.2199 7.248 19.2199 7.32 19.2199 7.416ZM16.8439 5.856C16.7959 5.472 16.6519 4.8 16.3159 4.272C16.1479 4.008 16.0039 3.912 15.7159 3.912H15.6919C15.5959 3.912 15.3079 4.2 15.2839 4.296C15.1399 4.776 14.9479 5.28 14.8999 5.52C14.7319 6.168 14.6599 6.552 14.5159 7.2C14.4199 7.584 14.4919 7.944 14.4199 8.304C14.3719 8.736 14.3959 8.832 14.3719 9.24C14.3719 9.288 14.3719 9.312 14.3719 9.36C14.3719 9.48 14.3719 9.576 14.3719 9.672C14.3719 9.72 14.3719 9.768 14.3719 9.816C14.3479 10.104 14.2759 10.272 14.2759 10.56C14.2759 10.68 14.2759 10.776 14.2759 10.896C14.2759 11.4 14.2999 11.784 14.3239 12.36C14.3239 12.504 14.3479 12.576 14.3719 12.696C14.4439 13.272 14.4439 13.632 14.5639 14.328C14.5879 14.496 14.6359 14.952 15.1639 14.952C15.1879 14.952 15.1879 14.952 15.2119 14.952C15.4039 14.952 15.8119 14.664 15.8839 14.448C15.9799 14.112 16.0759 13.776 16.1239 13.56C16.1719 13.248 16.2199 13.008 16.2919 12.672C16.3879 12.12 16.4119 11.832 16.5079 11.28C16.5079 11.208 16.5079 11.184 16.5319 11.112C16.5799 10.776 16.6279 10.584 16.6519 10.224C16.6759 9.768 16.6759 9.528 16.6999 9.072C16.6999 8.952 16.6999 8.856 16.7239 8.736C16.7479 8.424 16.7719 8.232 16.7959 7.92C16.8199 7.392 16.8679 6.96 16.8679 6.48C16.8679 6.288 16.8679 6.072 16.8439 5.856ZM32.3486 1.776C32.4686 2.088 32.5166 2.28 32.5886 2.592C32.6126 2.712 32.6606 2.832 32.6606 2.928C32.6606 2.976 32.6366 3.024 32.5886 3.072C32.5166 3.12 32.4686 3.144 32.3966 3.144C32.2766 3.144 32.1326 3.072 31.9646 3.072C31.5806 3.072 31.3646 3.072 31.0046 3.096C30.8126 3.12 30.6926 3.168 30.5006 3.192C29.9966 3.264 29.7086 3.264 29.2046 3.36C28.8926 3.408 28.6766 3.528 28.4126 3.576C28.3166 3.576 28.2206 3.672 28.1486 3.768C28.0526 3.888 28.0286 3.984 28.0286 4.104C28.0286 4.152 28.0286 4.176 28.0286 4.224C28.0286 4.32 28.0286 4.416 27.9806 4.536C27.8606 4.728 27.8126 4.848 27.7886 5.064C27.7406 5.232 27.6926 5.304 27.6926 5.424C27.6926 5.472 27.6926 5.496 27.7166 5.544C27.7166 5.568 27.7166 5.592 27.7166 5.616C27.7166 5.712 27.6686 5.784 27.6686 5.904C27.6686 5.904 27.6686 5.928 27.6686 5.952C27.6686 5.976 27.6686 6 27.6686 6.024C27.6686 6.12 27.6206 6.216 27.5966 6.336C27.5246 6.624 27.5006 6.768 27.4286 7.056C27.3566 7.32 27.3326 7.488 27.2846 7.704C27.2126 8.016 27.1406 8.352 27.1166 8.664C27.0926 8.784 26.9966 8.88 26.9966 9.024C26.9966 9.048 26.9966 9.048 26.9966 9.072C27.0206 9.192 27.1166 9.288 27.2366 9.288C27.2846 9.288 27.3326 9.288 27.3566 9.288C27.6686 9.288 27.8846 9.192 28.1966 9.192C28.2206 9.192 28.2446 9.192 28.2686 9.192C28.5086 9.192 28.6526 9.312 28.8926 9.36C29.1086 9.408 29.2286 9.336 29.4206 9.432C29.5406 9.48 29.5646 9.576 29.6126 9.696C29.7566 9.96 29.8046 9.792 29.9246 10.056C29.9726 10.152 30.1406 10.68 30.1406 10.776C30.1406 11.256 29.2766 11.328 29.1806 11.352C29.0846 11.352 29.0126 11.352 28.9166 11.352C28.7246 11.352 28.5086 11.328 28.3166 11.328C28.2446 11.328 28.1486 11.352 28.0766 11.352C27.7406 11.4 27.5246 11.448 27.2126 11.52C27.1646 11.544 27.0686 11.616 26.9726 11.664C26.9246 11.856 26.8046 12 26.8046 12.24C26.8046 12.24 26.8046 12.24 26.8046 12.264C26.8046 12.432 26.8766 12.576 26.8766 12.744C26.8766 13.032 26.8286 13.08 26.7806 13.344C26.7566 13.392 26.7566 13.44 26.7566 13.464C26.7566 13.536 26.7806 13.56 26.7806 13.68C26.7806 13.704 26.7806 13.704 26.7806 13.728C26.7806 13.824 26.7326 13.992 26.7326 14.088C26.7326 14.112 26.7326 14.136 26.7326 14.136C26.7566 14.208 26.7806 14.256 26.7806 14.328V14.352C26.7806 14.4 26.7806 14.448 26.7806 14.496C26.7806 14.616 26.7806 14.688 26.7806 14.832C26.7806 14.856 26.7806 14.856 26.7806 14.88C26.7806 15.024 26.7566 15.144 26.7566 15.264C26.7566 15.288 26.7566 15.336 26.7566 15.36C26.7806 15.648 26.8046 15.84 26.8046 16.104C26.8286 16.272 26.9006 16.44 26.9006 16.632C26.9006 16.656 26.9006 16.656 26.9006 16.68C26.9006 16.848 26.8526 16.92 26.7566 17.064C26.6366 17.256 26.5166 17.304 26.3726 17.472C26.2286 17.64 26.2286 17.856 26.0126 17.928C25.9646 17.952 25.9406 17.952 25.8926 17.952C25.7246 17.952 25.6046 17.832 25.4126 17.832C25.2926 17.832 25.2206 17.952 25.1246 17.952C25.1246 17.952 25.1006 17.928 25.0766 17.928C24.9326 17.856 24.8606 17.784 24.7166 17.712C24.4526 17.568 24.3566 17.544 24.0926 17.4C23.9006 17.304 23.8766 17.136 23.8286 16.944C23.8046 16.848 23.8046 16.752 23.8046 16.656C23.8046 16.536 23.8046 16.416 23.8046 16.296C23.8046 16.248 23.8046 16.2 23.8046 16.152C23.8046 15.96 23.7806 15.768 23.7326 15.576C23.6846 15.432 23.6846 15.264 23.6846 15.096C23.6606 14.64 23.6366 14.184 23.6366 13.728C23.6366 13.416 23.6366 13.08 23.6606 12.768C23.6606 12.672 23.6606 12.6 23.6606 12.504C23.6606 12.312 23.6606 12.144 23.6606 11.976C23.6126 11.832 23.5406 11.76 23.4446 11.712C23.3246 11.64 23.2046 11.592 23.0606 11.544C22.9406 11.496 22.8206 11.448 22.7246 11.424C22.5086 11.28 22.3646 11.112 22.3646 10.872C22.3646 10.872 22.3646 10.848 22.3646 10.824C22.3886 10.464 22.5566 10.272 22.8446 10.056C23.1086 9.84 23.3966 9.864 23.6846 9.816C23.8046 9.816 23.8766 9.72 23.9486 9.6C24.0446 9.048 24.1886 8.496 24.1886 7.92C24.1886 7.896 24.1646 7.848 24.1646 7.824C24.1646 7.728 24.1886 7.656 24.2126 7.584C24.2846 7.416 24.3086 7.248 24.3086 7.08C24.3086 7.032 24.3086 6.984 24.3086 6.936C24.3086 6.912 24.3086 6.864 24.3086 6.84C24.3086 6.36 24.4526 5.928 24.5246 5.472C24.6206 5.256 24.6206 5.04 24.6686 4.824C24.7406 4.608 24.7886 4.392 24.8606 4.2C24.9326 3.936 25.0046 3.672 25.1246 3.408C25.2926 3.072 25.4606 2.712 25.5806 2.352C25.7246 1.992 25.9406 1.752 26.2766 1.56C26.3726 1.512 26.4686 1.464 26.5886 1.416C26.6606 1.416 26.7326 1.44 26.8046 1.464C26.9006 1.488 26.9726 1.512 27.0446 1.536C27.2126 1.488 27.3566 1.44 27.5246 1.416C27.6686 1.392 27.7646 1.392 27.9326 1.368C28.1486 1.344 28.2926 1.32 28.5086 1.272C28.6046 1.248 28.6526 1.248 28.7486 1.224C29.2286 1.152 29.4926 1.128 29.9726 1.08C30.2606 1.056 30.4286 1.056 30.7166 1.056C30.8606 1.056 30.9806 1.008 31.1006 1.008C31.1486 1.008 31.1966 1.008 31.2446 1.032C31.5566 1.104 31.7006 1.224 31.9886 1.344C32.0126 1.344 32.0126 1.368 32.0366 1.392C32.1566 1.536 32.2526 1.608 32.3486 1.776ZM38.5361 1.8C38.6801 1.992 38.8961 2.256 38.8961 2.496C38.8961 2.544 38.8961 2.616 38.8721 2.664C38.7281 3.024 38.3441 3.048 37.9361 3.144C37.8641 3.144 37.8161 3.168 37.7441 3.168C37.5761 3.168 37.4321 3.12 37.2641 3.024C36.9761 2.928 36.7841 2.832 36.5921 2.592C36.5441 2.52 36.5441 2.448 36.5441 2.4C36.5441 2.304 36.5681 2.208 36.6401 2.136C36.8801 1.8 37.1201 1.584 37.4321 1.44C37.5041 1.368 37.6241 1.344 37.7201 1.344C37.7681 1.344 37.8401 1.344 37.8641 1.368C38.1281 1.512 38.3201 1.536 38.5361 1.8ZM37.8161 7.392C37.8161 7.56 37.8161 7.728 37.8881 7.896C37.9601 8.064 38.0081 8.256 38.0081 8.448C38.0081 8.64 37.9601 8.832 37.9121 9.024C37.8161 9.312 37.8401 9.576 37.7921 9.912C37.7681 10.128 37.7681 10.272 37.7201 10.488C37.6961 10.68 37.6721 10.776 37.6481 10.968C37.6241 11.232 37.6001 11.352 37.5521 11.616C37.5521 11.664 37.5281 11.664 37.5281 11.712C37.5041 12.096 37.4801 12.312 37.4321 12.696C37.4081 13.08 37.3361 13.296 37.3121 13.68C37.3121 14.16 37.3121 14.544 37.3121 14.928C37.3121 15.696 37.3121 16.368 37.3121 17.304C37.3121 17.4 37.3361 17.472 37.3361 17.568C37.3361 17.592 37.3361 17.64 37.3121 17.688C37.2401 17.952 37.2161 18.168 36.9761 18.312C36.8801 18.384 36.7601 18.408 36.6641 18.408C36.5201 18.408 36.4001 18.36 36.2321 18.312C36.0401 18.24 36.0401 18.048 35.8481 17.928C35.8001 17.904 35.7761 17.904 35.7281 17.904C35.6801 17.904 35.6561 17.904 35.6321 17.904C35.5841 17.904 35.5601 17.904 35.5121 17.88C35.3441 17.808 35.2241 17.784 35.0801 17.664C34.9841 17.568 34.9361 17.472 34.9121 17.328C34.8401 16.968 34.8641 16.752 34.8401 16.392C34.8401 16.032 34.8401 15.744 34.8401 15.456C34.8401 14.928 34.8401 14.472 34.8641 13.824C34.8881 13.464 34.9361 13.272 34.9601 12.936C34.9841 12.768 35.0081 12.696 35.0081 12.528C35.0801 12.024 35.1041 11.712 35.1521 11.208C35.1761 11.04 35.1761 10.968 35.1761 10.8C35.2241 10.536 35.2481 10.416 35.2721 10.152C35.2961 10.032 35.2961 9.96 35.3201 9.84C35.3681 9.576 35.3681 9.384 35.4401 9.192C35.4881 9.12 35.4881 9.024 35.4881 8.928C35.5841 8.16 35.7521 7.392 35.9681 6.6C36.0881 6.192 36.2801 5.952 36.4961 5.544C36.5201 5.496 36.5441 5.472 36.5921 5.472C36.6161 5.472 36.6401 5.472 36.6641 5.472C36.8081 5.472 36.9521 5.448 37.0961 5.448C37.2641 5.448 37.4081 5.472 37.5761 5.568C37.7921 5.664 37.7681 5.88 37.8161 6.096C37.8401 6.192 37.8641 6.288 37.8641 6.36C37.8641 6.456 37.8401 6.552 37.8401 6.648C37.8401 6.912 37.8161 7.152 37.8161 7.392ZM50.2764 16.344C50.3004 16.464 50.3004 16.584 50.3004 16.656C50.2764 16.944 50.1564 17.112 49.8684 17.328C49.7484 17.448 49.6044 17.472 49.4604 17.472C49.4124 17.472 49.3884 17.472 49.3404 17.472C49.1964 17.472 49.1484 17.448 49.0524 17.448C49.0284 17.448 48.9084 17.472 48.8844 17.448C48.7644 17.424 48.7884 17.352 48.6684 17.328C48.5484 17.304 48.5004 17.208 48.4284 17.112C48.1644 16.728 48.0684 16.584 47.9244 16.176C47.8044 15.936 47.8524 15.744 47.7804 15.48C47.7564 15.288 47.7324 15.192 47.6844 15C47.6124 14.664 47.5644 14.448 47.4924 14.112C47.4204 13.656 47.3244 13.32 47.2764 12.912C47.2524 12.72 47.2044 12.528 47.1564 12.36C46.5084 12.48 44.5404 12.48 44.4444 12.84C44.3724 13.104 44.3484 13.368 44.3004 13.704C44.2764 13.92 44.3004 14.064 44.2764 14.28C44.2524 14.688 44.2044 14.928 44.1324 15.336C44.1324 15.408 44.1084 15.432 44.1084 15.504C44.1084 15.552 44.1084 15.6 44.1084 15.672C44.1084 15.744 44.1084 15.792 44.1084 15.864C44.1084 16.008 44.1324 16.104 44.1084 16.248C44.1084 16.464 44.1084 16.584 44.0604 16.776C43.9164 17.472 43.5324 17.856 43.0764 17.856C43.0044 17.856 42.9324 17.856 42.8604 17.832C42.4524 17.736 42.2124 17.712 41.8524 17.376C41.6844 17.232 41.6124 16.92 41.5644 16.704C41.5644 16.632 41.5644 16.608 41.5644 16.536C41.5884 16.368 41.6124 16.296 41.6124 16.128C41.6844 15.72 41.7084 15.48 41.7564 15.072C41.8044 14.808 41.8044 14.688 41.8284 14.424C41.8764 14.04 41.9004 13.824 41.9244 13.44C41.9724 12.96 41.9244 12.672 41.9724 12.192C42.0204 11.832 42.0924 11.64 42.1404 11.28C42.1644 11.112 42.1644 11.04 42.1644 10.872C42.1644 10.824 42.1644 10.776 42.1644 10.728C42.1644 10.632 42.1644 10.584 42.1644 10.488C42.1884 10.32 42.1884 10.248 42.1884 10.08C42.2364 9.672 42.2844 9.432 42.3084 9.024C42.3324 8.928 42.3324 8.856 42.3324 8.76C42.4044 8.352 42.4284 8.112 42.4764 7.704C42.5004 7.608 42.5004 7.56 42.5004 7.464C42.5484 6.864 42.5484 6.528 42.6204 5.952C42.7404 5.232 42.9324 4.224 43.0044 3.384C43.0284 3.264 43.0284 3.192 43.0284 3.072C43.0764 2.736 43.0044 2.52 43.1724 2.232C43.4604 1.8 43.6524 1.488 44.1324 1.32C44.4684 1.2 44.5884 1.128 44.7324 1.128C44.8524 1.128 44.9964 1.2 45.2604 1.296C45.8844 1.536 46.0764 1.944 46.5084 2.448C46.6524 2.592 46.6284 2.784 46.7004 2.928C47.1324 3.768 47.3484 4.512 47.7084 5.544C47.9004 6.024 47.9964 6.288 48.1164 6.792C48.2604 7.248 48.3084 7.536 48.4044 7.992C48.5004 8.304 48.5484 8.472 48.6204 8.784C48.8124 9.456 48.9324 9.96 49.0764 10.536C49.2444 11.136 49.3644 11.712 49.5324 12.312C49.6044 12.624 49.6524 12.888 49.7244 13.272C49.8444 13.776 49.9164 14.04 50.0124 14.544C50.0604 14.664 50.0364 14.76 50.0604 14.88C50.1324 15.168 50.2044 15.312 50.2284 15.6C50.2524 15.744 50.2524 15.864 50.2764 15.96C50.2764 16.08 50.2764 16.2 50.2764 16.344ZM46.6764 10.416C46.5564 9.984 46.4364 9.576 46.2924 9.168C46.1484 8.76 45.9804 7.848 45.7884 7.2C45.5724 6.528 45.4284 5.784 45.2604 5.784C45.1644 5.784 45.1164 6.168 45.0924 6.264C45.0204 6.936 44.7324 9.096 44.7324 9.792C44.7324 9.912 44.7564 10.008 44.7564 10.104C44.8044 10.152 44.8524 10.224 44.9004 10.224C45.1404 10.272 46.1244 10.32 46.6764 10.416ZM74.3839 3.264C74.4079 3.456 74.4079 3.624 74.4079 3.768C74.4079 4.032 74.3839 4.272 74.3599 4.584C74.3359 4.968 74.2639 5.16 74.1919 5.544C74.1199 5.88 74.0959 6.096 74.0239 6.432C73.9759 6.696 73.9279 6.816 73.8799 7.08C73.8079 7.392 73.7839 7.56 73.7119 7.872C73.6879 8.04 73.6639 8.112 73.6159 8.28C73.5439 8.592 73.4959 8.76 73.4239 9.072C73.3519 9.36 73.3039 9.504 73.2559 9.792C73.2319 9.888 73.2559 9.96 73.2319 10.056C73.2079 10.32 73.1839 10.44 73.1359 10.704C73.1119 10.92 73.0879 11.04 73.0399 11.256C72.9919 11.64 72.9679 11.856 72.8959 12.24C72.8719 12.384 72.8479 12.432 72.8239 12.576C72.7999 12.792 72.7759 12.912 72.7519 13.128C72.7039 13.416 72.6799 13.584 72.6319 13.872C72.6079 14.064 72.6079 14.16 72.5839 14.352C72.5599 14.688 72.5839 14.856 72.5599 15.192C72.5599 15.36 72.5119 15.432 72.4879 15.6C72.4639 15.792 72.4399 15.888 72.4159 16.08C72.4159 16.2 72.4159 16.296 72.4159 16.368C72.4159 16.488 72.4159 16.584 72.4159 16.68C72.4159 16.8 72.4159 16.92 72.3919 17.064C72.3439 17.664 71.7679 17.976 71.1199 17.976C70.9279 17.976 70.7359 17.952 70.5199 17.88C70.2319 17.784 70.0159 17.784 69.8479 17.52C69.5599 17.04 69.6319 16.68 69.4639 16.152C69.4159 15.96 69.3679 15.864 69.2959 15.696C68.9599 14.664 68.7439 14.088 68.4319 13.032C68.2879 12.552 68.2639 12.264 68.1439 11.76C68.1439 11.688 68.1199 11.664 68.1199 11.592C68.0959 11.304 68.0719 11.136 68.0239 10.848C67.9999 10.584 67.9759 10.44 67.9279 10.2C67.8799 9.912 67.7839 9.72 67.7359 9.48C67.6879 9.24 67.5919 9.024 67.4959 8.784C67.4959 8.736 67.4239 8.712 67.3999 8.664C67.3999 8.664 67.3999 8.664 67.3759 8.664C67.3279 8.664 67.2559 8.712 67.2079 8.784C67.1839 8.832 67.1359 8.88 67.1359 8.928C67.1119 9.048 67.1119 9.144 67.0639 9.264C66.9679 9.528 66.9439 9.744 66.8719 10.056C66.7999 10.368 66.7759 10.56 66.7279 10.872C66.6559 11.424 66.6559 11.712 66.6079 12.264C66.5839 12.432 66.5839 12.504 66.5599 12.672C66.5119 12.96 66.4879 13.104 66.4399 13.392C66.4159 13.56 66.4159 13.632 66.3919 13.8C66.3439 14.184 66.2959 14.4 66.2719 14.784C66.2719 14.88 66.2719 14.952 66.2719 15.024C66.2719 15.12 66.2719 15.216 66.2719 15.312C66.2719 15.408 66.2719 15.504 66.2479 15.624C66.1279 16.632 65.5519 17.424 64.5199 17.424C64.3999 17.424 64.2799 17.424 64.1599 17.4C63.9679 17.328 63.7759 17.232 63.6799 17.016C63.4159 16.488 63.4159 16.128 63.2719 15.552C63.2239 15.312 63.1999 15.168 63.1519 14.904C63.1039 14.616 63.0799 14.472 63.0319 14.184C63.0079 14.064 62.9839 13.992 62.9839 13.848C62.9599 13.56 62.9839 13.392 62.9599 13.104C62.9599 12.984 62.9599 12.912 62.9359 12.792C62.8879 12.336 62.8639 12.096 62.7919 11.64C62.7679 11.52 62.7679 11.448 62.7439 11.328C62.7199 11.208 62.6959 11.136 62.6719 10.992C62.6239 10.68 62.6479 10.488 62.5759 10.176C62.5279 9.864 62.4319 9.696 62.3599 9.384C62.2639 8.952 62.2399 8.688 62.1439 8.256C62.1199 8.064 62.0959 7.944 62.0479 7.752C62.0239 7.656 62.0239 7.608 61.9999 7.512C61.9279 7.08 61.9519 6.768 61.8319 6.384C61.7599 6.096 61.7839 5.784 61.6879 5.496C61.5919 5.232 61.5679 4.992 61.5199 4.68C61.4239 4.104 61.3999 3.792 61.3039 3.216C61.2799 3.048 61.2319 2.976 61.2079 2.808C61.2079 2.736 61.2079 2.664 61.2079 2.616C61.2079 2.472 61.2079 2.328 61.2319 2.16C61.2319 2.112 61.2319 2.064 61.2319 2.016C61.2319 1.944 61.2319 1.896 61.2319 1.824C61.2319 1.704 61.2559 1.56 61.3519 1.44C61.5199 1.224 61.7119 1.08 61.9519 1.08C61.9999 1.08 62.0239 1.08 62.0719 1.08C62.4559 1.152 62.5999 1.392 62.8159 1.704C63.0799 2.064 63.1039 2.328 63.2479 2.76C63.3439 3.072 63.3679 3.264 63.4399 3.576C63.5359 4.008 63.5599 4.272 63.6319 4.704C63.7039 5.064 63.7999 5.28 63.8239 5.592C63.8479 5.88 63.9679 6.168 64.0399 6.48C64.0879 6.744 64.1119 7.008 64.2079 7.272C64.2799 7.536 64.2799 7.776 64.2799 8.016C64.3039 8.184 64.3279 8.352 64.3759 8.496C64.4239 8.76 64.4479 9.048 64.4959 9.336C64.5439 9.408 64.5679 9.528 64.7119 9.6C64.7599 9.552 64.8319 9.504 64.8559 9.456C65.0479 9.048 65.1919 8.64 65.2639 8.208C65.3359 7.824 65.4559 7.464 65.5519 7.08C65.6479 6.744 65.7679 6.408 65.8399 6.048C65.9119 5.712 66.0559 5.376 66.1519 5.04C66.2959 4.488 66.4639 3.984 66.6559 3.456C66.7279 3.264 66.7999 3.024 67.0399 2.88C67.1599 2.856 67.2559 2.832 67.3759 2.832C67.5919 2.832 67.8079 2.904 68.0239 3.072C68.1199 3.264 68.2159 3.504 68.2879 3.696C68.4079 3.84 68.5519 3.816 68.6719 3.912C68.7679 4.032 68.8879 4.176 68.9119 4.32C68.9359 4.56 69.0079 4.752 69.0559 4.968C69.1279 5.184 69.1279 5.4 69.2239 5.616C69.2479 6.072 69.4159 6.528 69.5119 6.984C69.6319 7.44 69.7519 7.872 69.8479 8.328C69.9439 8.688 69.9439 9.048 70.0879 9.384C70.0879 9.408 70.0879 9.432 70.0879 9.456C70.0879 9.792 70.2559 10.104 70.2799 10.44C70.2799 10.608 70.3999 10.728 70.4959 10.872C70.5199 10.848 70.5439 10.848 70.5439 10.824C70.6399 10.416 70.7599 10.032 70.7839 9.624C70.7839 9.432 70.8799 9.24 70.9039 9.048C70.9279 8.736 71.0959 8.472 71.1199 8.16C71.1439 7.896 71.2399 7.632 71.2879 7.368C71.3359 7.056 71.4079 6.768 71.4559 6.48C71.5039 6.24 71.5519 6 71.6239 5.76C71.6959 5.4 71.7199 5.112 71.7919 4.704C71.8399 4.488 71.8879 4.344 71.9359 4.128C72.0559 3.672 72.1039 3.408 72.2479 2.952C72.3679 2.592 72.3439 2.304 72.6319 2.088C72.8719 1.92 73.0879 1.848 73.3519 1.848C73.4479 1.848 73.5439 1.848 73.6639 1.872C73.9279 1.92 74.0719 2.064 74.2159 2.304C74.2399 2.352 74.2639 2.376 74.2639 2.424C74.2639 2.496 74.2159 2.568 74.2159 2.664C74.2159 2.688 74.2159 2.688 74.2159 2.712C74.2639 2.928 74.3599 3.048 74.3839 3.264ZM86.0003 3.384C86.0243 3.432 86.0243 3.456 86.0243 3.504C86.0243 3.672 85.8803 3.792 85.7603 3.936C85.5443 4.176 85.4243 4.32 85.1123 4.392C85.0163 4.416 84.9443 4.416 84.8723 4.416C84.6083 4.416 84.3923 4.32 84.0803 4.296C83.9603 4.296 83.8883 4.272 83.7683 4.272C83.4083 4.248 83.2163 4.272 82.8563 4.248C82.6643 4.224 82.5203 4.224 82.3523 4.176C82.1843 4.128 81.9922 4.104 81.8242 4.104C81.6803 4.104 81.5123 4.128 81.3683 4.128C81.2723 4.128 81.1763 4.2 81.1043 4.296C80.9603 4.536 80.8883 4.8 80.8643 5.088C80.8643 5.376 80.7443 5.664 80.7443 5.976C80.7443 6 80.7443 6.024 80.7443 6.048C80.7443 6.12 80.7443 6.192 80.7443 6.24C80.7443 6.528 80.7203 6.792 80.7203 7.056C80.7203 7.632 80.6963 8.208 80.6963 8.784C80.6963 8.952 80.7203 9.12 80.7203 9.288C80.8163 9.336 80.8883 9.384 80.9603 9.384C81.0803 9.384 81.1763 9.408 81.2963 9.408C81.5123 9.408 81.7283 9.384 81.9443 9.312C82.0643 9.264 82.2083 9.264 82.3523 9.24C82.4483 9.24 82.5683 9.24 82.6643 9.216C82.9523 9.12 83.2163 9.096 83.5043 9.096C83.6243 9.096 83.7443 9.096 83.8643 9.096C84.0083 9.096 84.0803 9.168 84.2003 9.24C84.3443 9.312 84.4643 9.312 84.5843 9.432C84.7763 9.624 84.9683 9.744 84.9923 10.008C84.9923 10.032 84.9923 10.056 84.9923 10.08C84.9923 10.32 84.8723 10.488 84.6803 10.656C84.3923 10.92 84.0803 10.944 83.7923 11.088C83.7203 11.136 83.6243 11.184 83.5523 11.184C83.1443 11.184 82.7603 11.4 82.3283 11.4H82.2563C82.0163 11.448 81.7763 11.496 81.5363 11.52C81.2963 11.568 81.0803 11.568 80.9123 11.568C80.7683 11.64 80.7203 11.76 80.7203 11.856C80.7203 12.024 80.7203 12.192 80.7203 12.36C80.7203 12.432 80.7203 12.528 80.7203 12.6C80.7203 12.864 80.8643 13.08 80.8643 13.344C80.8883 13.728 81.0563 14.016 81.2243 14.424C81.2723 14.52 81.3203 14.592 81.4163 14.64C81.6803 14.76 81.8242 14.856 82.1123 14.88C82.2083 14.904 82.3043 14.904 82.4003 14.904C82.6643 14.904 82.8803 14.856 83.1683 14.856C83.1923 14.856 83.2163 14.856 83.2403 14.856C83.5523 14.856 83.6963 14.88 84.0083 14.904C84.2483 14.952 84.3443 14.928 84.5603 15.024C84.7283 15.12 84.8483 15.12 85.0163 15.216C85.2323 15.36 85.4003 15.432 85.4963 15.648C85.5203 15.696 85.5203 15.72 85.5203 15.744C85.5203 15.864 85.4483 15.96 85.4243 16.08C85.4003 16.224 85.4483 16.344 85.3283 16.44C85.1363 16.608 84.9443 16.608 84.7043 16.704C84.4883 16.8 84.3683 16.944 84.1283 16.968C83.6483 17.016 83.2643 17.04 82.8563 17.04C82.5923 17.04 82.3283 17.04 82.0403 17.016C81.6803 16.992 81.3923 16.944 80.9843 16.824C80.6483 16.728 80.4083 16.632 80.1443 16.488C79.7363 16.272 79.4003 16.008 79.1842 15.6C79.1363 15.504 79.0403 15.432 78.9923 15.336C78.9203 15.168 78.8483 14.976 78.8003 14.808C78.7043 14.472 78.6083 14.232 78.5363 13.848C78.4643 13.512 78.4403 13.296 78.3923 12.96C78.3923 12.936 78.3923 12.936 78.3923 12.912C78.3923 12.888 78.3923 12.864 78.3923 12.816V12.792C78.3443 12.216 78.2963 11.88 78.2723 11.304C78.2483 10.872 78.2483 10.536 78.2483 10.176C78.2483 10.104 78.2483 10.056 78.2483 9.984C78.2483 9.672 78.2483 9.384 78.3683 9.096C78.4163 8.976 78.3923 8.808 78.4163 8.688C78.4163 8.376 78.4163 8.064 78.4403 7.776C78.4403 7.704 78.4403 7.608 78.4403 7.536C78.4403 7.512 78.4403 7.464 78.4403 7.44C78.6083 6.912 78.5603 6.384 78.5843 5.88V5.472C78.6083 5.328 78.6323 5.184 78.6562 5.064C78.7043 4.944 78.7043 4.848 78.7283 4.728V4.344C78.4643 4.248 78.3203 4.2 78.0563 4.104C77.7923 4.008 77.6243 4.032 77.4083 3.864C77.1683 3.672 76.9763 3.528 76.9763 3.24C76.9763 3.216 76.9763 3.216 76.9763 3.216C76.9763 2.976 77.2402 2.928 77.4323 2.76C77.6243 2.592 77.6963 2.448 77.9363 2.352C78.1523 2.256 78.3443 2.256 78.5363 2.256C78.5843 2.256 78.6323 2.256 78.6803 2.256C78.9443 2.256 79.1363 2.16 79.4243 2.112C79.7123 2.064 79.8563 1.968 80.1443 1.968C80.1443 1.968 80.1443 1.968 80.1683 1.968C80.3603 1.968 80.4803 2.064 80.6963 2.088C80.8883 2.112 81.0083 2.112 81.2003 2.112C81.2723 2.112 81.3443 2.112 81.4163 2.112C81.6083 2.112 81.7523 2.112 81.9443 2.112C82.0163 2.112 82.0883 2.112 82.1843 2.112C82.3043 2.112 82.4003 2.112 82.5203 2.136C82.8083 2.184 82.9763 2.232 83.2643 2.256C83.5523 2.28 83.7203 2.256 84.0083 2.304C84.2243 2.328 84.3443 2.4 84.5603 2.424C84.6083 2.424 84.6563 2.424 84.6803 2.424C84.7283 2.424 84.7763 2.424 84.8243 2.424C84.8963 2.424 84.9683 2.448 85.0403 2.472C85.2803 2.568 85.3763 2.712 85.5683 2.88C85.7603 3.048 85.8563 3.216 86.0003 3.384ZM101.2 1.008V1.896C101.2 1.968 101.2 2.064 101.176 2.136C100.96 2.472 101.008 2.832 100.912 3.264C100.888 3.456 100.888 3.552 100.864 3.744C100.84 3.96 100.864 4.104 100.816 4.32C100.768 4.704 100.72 4.896 100.624 5.28C100.6 5.424 100.552 5.472 100.528 5.616C100.48 5.928 100.456 6.096 100.408 6.408C100.384 6.624 100.384 6.768 100.36 6.984C100.312 7.416 100.288 7.632 100.24 8.064C100.216 8.28 100.216 8.424 100.192 8.64C100.168 8.808 100.144 8.88 100.12 9.048C100.072 9.36 100.048 9.528 100 9.84C99.9521 10.2 99.9521 10.392 99.9041 10.752C99.8801 10.944 99.8801 11.04 99.8561 11.232C99.8081 11.544 99.7841 11.736 99.7361 12.048C99.7121 12.216 99.7121 12.288 99.7121 12.456C99.7121 12.792 99.7121 12.96 99.6881 13.296C99.6881 13.488 99.6641 13.584 99.6161 13.776C99.4721 14.376 99.3521 14.784 99.2321 15.288C99.2321 15.696 99.0161 16.056 99.0161 16.44C99.0161 16.464 99.0161 16.488 99.0161 16.512C98.9441 16.776 98.8721 17.04 98.8001 17.304C98.7521 17.496 98.7281 17.688 98.6801 17.856C98.6561 18.096 98.4881 18.216 98.2721 18.216C98.2481 18.216 98.2241 18.216 98.2001 18.216C98.1281 18.192 98.0561 18.168 97.9601 18.12C97.8641 18.144 97.7921 18.24 97.7201 18.312C97.6721 18.384 97.6001 18.432 97.5521 18.48C97.4801 18.528 97.4081 18.552 97.3121 18.552C97.2881 18.552 97.2641 18.552 97.2401 18.552C97.0241 18.48 96.8081 18.408 96.5681 18.312C96.4001 18.168 96.1841 17.976 96.0401 17.808C95.6801 17.232 95.4881 16.632 95.2481 16.032C95.0081 15.48 94.7921 14.904 94.6001 14.328C94.4081 13.8 94.1921 13.272 93.9761 12.72C93.7121 11.976 93.4481 11.232 93.2321 10.464C93.0641 9.792 92.8481 9.144 92.7281 8.472C92.5841 8.16 92.5601 7.824 92.3441 7.536C92.2241 7.536 92.1521 7.608 92.1281 7.704C92.1041 7.8 92.0801 7.872 92.0801 7.968C92.0321 8.28 91.9841 8.544 91.9361 8.928C91.9121 9.048 91.9361 9.144 91.9121 9.264C91.8641 9.648 91.8401 9.864 91.7921 10.248C91.7921 10.368 91.7681 10.464 91.7681 10.584C91.7681 10.896 91.7681 11.088 91.7441 11.4C91.7201 11.808 91.6481 12.048 91.6001 12.456C91.5761 12.864 91.5761 13.104 91.5521 13.536C91.5521 13.608 91.5281 13.632 91.5041 13.704C91.4561 13.992 91.4561 14.136 91.4081 14.424C91.3841 14.616 91.3601 14.736 91.3121 14.928C91.3121 14.976 91.2641 15.024 91.2641 15.072C91.1921 15.768 91.1681 16.176 91.0721 16.872C91.0241 17.28 91.0481 17.544 90.8561 17.88C90.7841 17.952 90.6881 18.024 90.5681 18.12C90.4961 18.264 90.4241 18.408 90.3521 18.528C90.1601 18.696 89.9681 18.816 89.7521 18.84C89.5361 18.816 89.3441 18.72 89.1761 18.552C88.9601 18.24 88.9361 17.88 88.8161 17.544C88.7681 17.424 88.7681 17.304 88.7681 17.16C88.7681 17.088 88.7681 17.016 88.7681 16.92C88.7681 16.896 88.7681 16.896 88.7681 16.872C88.7681 16.728 88.7681 16.608 88.7681 16.488C88.7681 16.224 88.7681 16.032 88.7921 15.72C88.8161 15.504 88.8641 15.384 88.8881 15.168C88.9121 14.952 88.9121 14.808 88.9361 14.592C88.9841 14.208 89.0081 13.992 89.0561 13.608C89.0801 13.44 89.1041 13.368 89.1041 13.2C89.1281 13.032 89.1281 12.96 89.1281 12.792C89.1761 12.336 89.2001 12.096 89.2481 11.64C89.3441 10.944 89.3921 10.536 89.4881 9.84C89.5361 9.576 89.5601 9.456 89.5841 9.192C89.6081 8.856 89.6081 8.688 89.6321 8.352C89.6561 8.064 89.7041 7.92 89.7521 7.632C89.8001 7.368 89.8481 7.248 89.8721 6.984C89.8961 6.792 89.8961 6.696 89.9201 6.504C89.9681 6.12 89.9921 5.904 90.0401 5.52C90.0641 5.4 90.0641 5.304 90.0641 5.184C90.0881 4.32 90.0881 3.816 90.0881 2.952C90.0881 2.784 90.0401 2.64 90.0401 2.496C90.0401 2.424 90.0641 2.352 90.0881 2.28C90.2321 1.968 90.4961 1.8 90.7121 1.68C90.8081 1.632 90.9041 1.632 91.0241 1.632C91.1681 1.632 91.3361 1.656 91.4801 1.68C91.6961 1.704 91.9121 1.8 92.1281 1.848C92.2001 1.968 92.2961 2.064 92.3681 2.184C92.4401 2.304 92.5121 2.424 92.5841 2.52C92.6321 2.592 92.6801 2.664 92.7281 2.736C93.3521 3.552 93.8081 4.464 94.2641 5.376C94.3841 5.64 94.5041 5.928 94.6001 6.216C94.9121 7.008 95.2001 7.8 95.4881 8.616C95.6801 9.24 95.8241 9.888 96.0401 10.512C96.0881 10.704 96.1361 10.896 96.2081 11.064C96.2801 11.256 96.3521 11.472 96.4001 11.688C96.4721 12 96.6161 12.312 96.8081 12.576C96.9041 12.576 97.0001 12.552 97.0241 12.456C97.0481 12.312 97.0481 12.192 97.0721 12.048C97.0721 11.88 97.0721 11.712 97.1441 11.544C97.1681 11.424 97.1921 11.304 97.1921 11.16C97.2161 10.92 97.2161 10.8 97.2161 10.56C97.2401 10.152 97.2401 9.912 97.2881 9.504C97.3361 9.12 97.4321 8.904 97.4801 8.52C97.5281 8.304 97.5281 8.184 97.5281 7.968C97.5521 7.632 97.5521 7.464 97.5761 7.128C97.6241 6.696 97.6721 6.432 97.7201 6C97.7441 5.808 97.7681 5.688 97.7921 5.496C97.8161 5.28 97.8401 5.16 97.8641 4.944C97.9121 4.656 97.9601 4.488 98.0081 4.2C98.0321 4.104 98.0321 4.056 98.0321 3.96C98.1041 3.456 98.1761 3.096 98.2001 2.64C98.2241 2.424 98.3681 2.232 98.3681 2.016C98.3681 1.824 98.3921 1.632 98.3921 1.44C98.5121 1.224 98.5841 1.032 98.7041 0.839999C98.9681 0.383999 99.4001 0.167999 99.9281 0.144C100.144 0.144 100.36 0.191999 100.552 0.191999C100.912 0.383999 101.056 0.671999 101.2 1.008ZM115.86 9.744C115.884 9.984 115.884 10.152 115.884 10.344C115.884 10.512 115.884 10.68 115.884 10.896C115.884 11.112 115.884 11.232 115.86 11.472C115.836 11.712 115.788 11.856 115.764 12.12C115.74 12.168 115.74 12.216 115.74 12.288C115.692 12.624 115.668 12.816 115.596 13.176C115.524 13.512 115.476 13.704 115.404 14.064C115.26 14.712 115.14 15.192 115.02 15.744C114.9 16.32 114.756 16.872 114.612 17.424C114.588 17.472 114.564 17.544 114.564 17.592C114.564 18.144 114.492 18.576 114.348 19.2C114.156 20.016 113.772 20.4 113.34 20.424H113.316C112.86 20.424 112.38 20.064 111.948 19.44C111.804 19.224 111.828 19.08 111.756 18.864C111.756 18.792 111.756 18.696 111.78 18.624C111.828 18.48 111.876 18.36 111.876 18.216C111.852 18.12 111.852 18.048 111.852 17.976C111.852 17.52 112.02 17.088 112.116 16.68C112.284 16.344 112.26 15.984 112.38 15.648C112.452 15.408 112.452 15.168 112.548 14.928C112.62 14.712 112.596 14.496 112.692 14.28C112.716 14.232 112.716 14.16 112.716 14.112C112.716 14.064 112.716 13.992 112.716 13.944C112.716 13.896 112.692 13.848 112.668 13.8C112.596 13.824 112.524 13.872 112.452 13.92C112.116 14.232 111.78 14.568 111.396 14.832C111.18 15 110.964 15.192 110.82 15.408C110.772 15.552 110.796 15.696 110.676 15.792C110.34 16.008 110.076 16.056 109.692 16.2C109.524 16.248 109.452 16.272 109.284 16.296C109.068 16.32 108.924 16.368 108.756 16.368C108.684 16.368 108.612 16.368 108.54 16.344C108.3 16.248 108.252 16.056 108.084 15.888C108.012 15.792 108.036 15.696 107.94 15.648C107.364 15.288 106.956 15.264 106.38 14.856C106.02 14.592 105.78 14.28 105.444 13.896C105.228 13.632 105.132 13.488 104.988 13.224C104.772 12.84 104.676 12.648 104.532 12.264C104.412 11.952 104.388 11.76 104.316 11.448C104.268 11.28 104.292 11.184 104.268 11.04C104.244 10.944 104.244 10.872 104.244 10.8C104.172 10.176 104.1 9.768 104.076 9.24C104.076 8.688 104.076 8.136 104.1 7.584C104.1 7.248 104.1 6.912 104.196 6.6C104.292 6.312 104.292 6 104.436 5.736C104.676 4.776 105.156 3.936 105.636 3.096C105.78 2.808 105.996 2.544 106.212 2.304C106.692 1.728 107.1 1.248 107.796 0.719999C108.108 0.456 108.372 0.407999 108.78 0.335999C108.804 0.311999 108.828 0.311999 108.852 0.311999C108.948 0.311999 109.02 0.36 109.092 0.431999C109.524 0.816 109.908 0.983999 110.1 1.56C110.1 1.584 110.124 1.632 110.124 1.68C110.124 1.92 109.86 2.088 109.716 2.352C109.524 2.664 109.356 2.904 109.14 3.144C109.092 3.312 109.044 3.48 108.972 3.624C108.924 3.768 108.828 3.912 108.732 4.056C108.42 4.536 108.108 5.016 107.844 5.544C107.436 6.336 107.196 7.176 106.956 8.016C106.884 8.328 106.86 8.664 106.788 9C106.764 9.144 106.764 9.288 106.764 9.456C106.764 9.624 106.764 9.792 106.764 9.984C106.764 10.056 106.764 10.128 106.788 10.224C106.836 10.728 106.86 11.016 106.932 11.544C106.98 11.904 107.004 12.12 107.124 12.504C107.22 12.84 107.22 13.104 107.484 13.344C107.796 13.608 108.132 13.608 108.492 13.68C108.516 13.68 108.564 13.68 108.612 13.68C108.78 13.68 108.948 13.608 109.116 13.536C109.188 13.488 109.26 13.44 109.308 13.392C109.86 12.84 110.436 12.336 110.94 11.736C111.228 11.4 111.516 11.064 111.804 10.728C111.876 10.608 111.948 10.488 112.02 10.368C112.068 10.248 112.116 10.128 112.188 10.008C112.164 9.984 112.164 9.936 112.164 9.888C112.164 9.768 112.212 9.552 112.212 9.432C112.212 9.384 112.188 9.336 112.164 9.336V9.36C112.02 9.384 111.852 9.384 111.732 9.384C111.612 9.384 111.516 9.384 111.468 9.36C111.276 9.288 111.132 9.264 111.012 9.264C110.868 9.264 110.748 9.288 110.604 9.288C110.556 9.288 110.532 9.288 110.484 9.288C110.292 9.264 110.076 9.24 109.86 9.216C109.764 9.144 109.668 9.096 109.596 9.024C109.476 8.928 109.404 8.808 109.404 8.664V7.92C109.404 7.68 109.548 7.512 109.764 7.416C109.836 7.368 109.908 7.344 110.028 7.296C110.148 7.272 110.316 7.272 110.484 7.272C110.7 7.248 110.916 7.224 111.132 7.152C111.468 7.056 111.828 7.032 112.188 6.96C112.308 6.936 112.452 6.912 112.596 6.912C112.74 6.912 112.86 6.936 113.004 6.936C113.292 6.936 113.532 6.864 113.796 6.864C113.964 6.864 114.108 6.888 114.3 6.96C114.756 7.104 115.02 7.296 115.332 7.68C115.524 7.896 115.476 8.136 115.572 8.448C115.644 8.688 115.668 8.832 115.716 9.096C115.764 9.336 115.836 9.48 115.86 9.744Z" fill="black"/>
</svg>
