<svg width="84" height="82" viewBox="0 0 84 82" fill="none" xmlns="http://www.w3.org/2000/svg">
<path d="M1.76904 61V21C1.76904 9.9543 10.7233 1 21.769 1H62.7021C73.7478 1 82.7021 9.9543 82.7021 21V61C82.7021 72.0457 73.7478 81 62.7021 81H21.769C10.7234 81 1.76904 72.0457 1.76904 61Z" stroke="black" stroke-width="2"/>
<path d="M20.998 55.6302L20.5498 22.9974C20.5345 21.8822 21.4343 20.97 22.5496 20.97H27.7617H34.3096C41.1461 20.97 46.6883 26.5121 46.6883 33.3486C46.6883 40.1852 41.1461 45.7273 34.3096 45.7273H29.1715C28.6187 45.7273 28.1706 46.1754 28.1706 46.7282V55.6028C28.1706 56.7073 27.2752 57.6028 26.1706 57.6028H22.9979C21.904 57.6028 21.0131 56.724 20.998 55.6302Z" stroke="black" stroke-width="2"/>
<path d="M51.5974 56.2784L51.0691 29.93H55.0417C57.0465 29.93 58.6718 31.5552 58.6718 33.5601L59.3606 33.023C61.5586 31.3093 64.1594 30.1879 66.9144 29.766C67.4784 29.6796 67.9867 30.116 67.9867 30.6866V36.6422L63.2875 37.1622C60.9738 37.1622 59.1095 39.0591 59.1496 41.3725L59.3935 55.4315C59.4109 56.4353 58.6019 57.2584 57.598 57.2584H52.5972C52.0527 57.2584 51.6083 56.8228 51.5974 56.2784Z" stroke="black" stroke-width="2"/>
</svg>
