<svg width="85" height="82" viewBox="0 0 85 82" fill="none" xmlns="http://www.w3.org/2000/svg">
<path d="M1.23145 61V21C1.23145 9.95431 10.1858 1 21.2315 1H63.0745C74.1202 1 83.0745 9.95431 83.0745 21V61C83.0745 72.0457 74.1202 81 63.0745 81H21.2314C10.1858 81 1.23145 72.0457 1.23145 61Z" stroke="#282828" stroke-width="2"/>
<path d="M53.7314 70L67.6909 62.7796C68.0229 62.6079 68.2314 62.2652 68.2314 61.8914V20.1277C68.2314 19.7439 68.0118 19.394 67.6662 19.2271L54.1739 12.7136C53.8949 12.5789 53.5691 12.5812 53.292 12.7197L52.7314 13M53.7314 70V68.5V53.5M53.7314 70L29.249 48.1407M52.7314 13L53.4386 13.7071C53.6261 13.8946 53.7314 14.149 53.7314 14.4142V29.5M52.7314 13L29.7314 35.1667M53.7314 53.5L38.2314 41.6597M53.7314 53.5V29.5M29.7314 35.1667L18.4554 26.553C18.0451 26.2396 17.4637 26.29 17.1135 26.6694L12.4211 31.7529C12.0421 32.1635 12.073 32.805 12.4898 33.1771L21.9903 41.6597M29.7314 35.1667L38.2314 41.6597M38.2314 41.6597L53.7314 29.5M21.9903 41.6597L12.5577 49.3283C12.11 49.6922 12.0624 50.3585 12.4537 50.7825L17.1286 55.8469C17.4724 56.2194 18.0405 56.2757 18.4508 55.9779L29.249 48.1407M21.9903 41.6597L29.249 48.1407" stroke="#282828" stroke-width="2"/>
</svg>
